Coordinates
version=1
nRows=29
nColumns=24
inDegrees=yes

Units are S.I. units (second, meters, Newtons, ...)
Angles are in degrees.

endheader
time	pelvis_tilt	pelvis_list	pelvis_rotation	pelvis_tx	pelvis_ty	pelvis_tz	hip_flexion_r	hip_adduction_r	hip_rotation_r	knee_angle_r	ankle_angle_r	subtalar_angle_r	mtp_angle_r	hip_flexion_l	hip_adduction_l	hip_rotation_l	knee_angle_l	ankle_angle_l	subtalar_angle_l	mtp_angle_l	lumbar_extension	lumbar_bending	lumbar_rotation
      3.30500000	     17.46662562	      0.65520060	      3.68317777	      0.13602026	      0.97142003	      0.04029898	    -18.35218772	      1.22822333	     -0.87801990	      2.03689639	     10.61048110	      2.43953430	     32.26610619	    -12.86038190	    -11.21711107	    -12.76532959	    -51.43475357	     -0.01899241	      1.21331194	     43.52889318	    -25.77068513	      5.46629473	     -1.24766209
      3.31000000	     17.32925279	      0.73374369	      3.70696607	      0.13999718	      0.97140867	      0.04076042	    -18.62083113	      1.19733842	     -0.89085856	      2.32294180	     10.74696605	      2.44674800	     31.70421496	    -12.07175330	    -11.23073407	    -12.80617521	    -51.73962492	      0.86400640	      1.31300206	     40.58726851	    -25.69494633	      5.39306162	     -1.23786886
      3.31500000	     17.20069322	      0.84437584	      3.72592786	      0.14398668	      0.97141559	      0.04117811	    -18.88946120	      1.13097620	     -0.97986940	      2.58598710	     10.87232499	      2.52142694	     31.69208590	    -11.32451651	    -11.18289069	    -12.84195162	    -51.90393800	      1.55683277	      1.28049679	     40.56316791	    -25.62960925	      5.28370626	     -1.23131519
      3.32000000	     17.11458338	      0.96264545	      3.69715742	      0.14796988	      0.97146076	      0.04159077	    -19.20250480	      1.03888937	     -1.01305684	      2.85361232	     10.97301901	      2.58361229	     31.68498177	    -10.66483290	    -11.09764994	    -12.94446529	    -51.96293123	      2.24075434	      1.24311370	     40.56054367	    -25.61615774	      5.15718042	     -1.17737588
      3.32500000	     16.89196451	      0.99977817	      3.73679951	      0.15187952	      0.97124478	      0.04195078	    -19.32436244	      1.04884030	     -1.11429058	      3.05073580	     11.13970321	      2.64247392	     31.62708076	     -9.79431000	    -11.11298684	    -12.97421459	    -52.07361179	      2.99118411	      1.57161653	     40.41146270	    -25.45388802	      5.12637211	     -1.14182400
      3.33000000	     16.72482688	      1.09322547	      3.72067121	      0.15581062	      0.97113188	      0.04231130	    -19.50421471	      0.98263260	     -1.19787172	      3.23830710	     11.28413393	      2.69442709	     31.56834524	     -9.04940296	    -11.02535267	    -13.06228473	    -52.02871669	      3.70587828	      1.82141339	     40.26844929	    -25.35643316	      5.02099828	     -1.08231224
      3.33500000	     16.54654588	      1.14137862	      3.70745079	      0.15968917	      0.97094221	      0.04264967	    -19.65623516	      0.95981456	     -1.26257413	      3.41020250	     11.45417493	      2.79711521	     31.49036172	     -8.28539673	    -10.97646942	    -13.15262845	    -51.95255814	      4.42408970	      2.15445925	     40.07170333	    -25.25290855	      4.96343849	     -0.99393232
      3.34000000	     16.29076311	      1.16647316	      3.70665643	      0.16350510	      0.97062155	      0.04289014	    -19.68727967	      0.94848189	     -1.33617687	      3.50552815	     11.78325969	      3.06314724	     30.40103002	     -7.41464879	    -10.92061827	    -13.21715813	    -51.88077040	      5.24679666	      2.51564503	     37.25145253	    -25.06906465	      4.93722443	     -0.90345385
      3.34500000	     16.19782494	      1.23804206	      3.66143702	      0.16744011	      0.97052565	      0.04320658	    -19.94160252	      0.89350000	     -1.39427333	      3.69076834	     11.91203567	      3.15037090	     30.37696738	     -6.81629877	    -10.81465503	    -13.36412357	    -51.59344677	      5.91780261	      2.95318389	     37.26721099	    -25.05605779	      4.84921209	     -0.78930849
      3.35000000	     16.01419322	      1.23673567	      3.63720711	      0.17129128	      0.97025612	      0.04345300	    -20.04856081	      0.90757647	     -1.45601977	      3.79651244	     12.11431824	      3.33674252	     30.29885333	     -6.08568953	    -10.76758921	    -13.48482688	    -51.31503132	      6.57850235	      3.32643109	     37.16045330	    -24.95113479	      4.84475752	     -0.64892649
      3.35500000	     15.83846627	      1.25190528	      3.60097593	      0.17514634	      0.96999055	      0.04368082	    -20.15350719	      0.89880646	     -1.53222664	      3.87847827	     12.33886644	      3.53969516	     30.16307163	     -5.39095235	    -10.68025953	    -13.61486064	    -50.94230599	      7.20474932	      3.67573261	     36.96135847	    -24.85520159	      4.81821078	     -0.49903095
      3.36000000	     15.68198995	      1.31538273	      3.54391431	      0.17901381	      0.96975958	      0.04390454	    -20.28590066	      0.83160776	     -1.56398270	      3.96529963	     12.58093342	      3.66665568	     30.09165619	     -4.75629464	    -10.51458037	    -13.75979927	    -50.45244177	      7.72619730	      3.98441557	     36.86614121	    -24.78374809	      4.73261603	     -0.36541916
      3.36500000	     15.54257552	      1.32723293	      3.49407986	      0.18289424	      0.96953010	      0.04405118	    -20.39010810	      0.81527088	     -1.72922338	      3.94591040	     13.01744695	      4.22868403	     28.49439750	     -4.14994076	    -10.38893785	    -13.90379258	    -49.92638678	      8.41169550	      4.37479296	     34.65843291	    -24.72590938	      4.71304837	     -0.18639794
      3.37000000	     15.38628173	      1.35039605	      3.44696924	      0.18674292	      0.96924960	      0.04421983	    -20.51158662	      0.78775169	     -1.72376596	      4.02197507	     13.21447753	      4.28071799	     28.47866003	     -3.53663302	    -10.24152227	    -14.04566985	    -49.31318362	      8.89732708	      4.67309175	     34.67895590	    -24.65608803	      4.67487704	     -0.03890849
      3.37500000	     15.25811509	      1.36475181	      3.39051041	      0.19056289	      0.96901334	      0.04433867	    -20.64350093	      0.76179556	     -1.72110264	      4.06223322	     13.38249618	      4.37453092	     28.46962948	     -2.98198234	    -10.07358479	    -14.18128011	    -48.60246398	      9.37500294	      4.83779308	     34.68728716	    -24.62239325	      4.64990998	      0.12912674
      3.38000000	     15.11725880	      1.38056889	      3.32055012	      0.19440404	      0.96875328	      0.04447354	    -20.74640803	      0.72896571	     -1.72207713	      4.06947463	     13.61550969	      4.50773108	     28.45665442	     -2.43783177	     -9.89731856	    -14.34428536	    -47.82029584	      9.80268475	      5.07629843	     34.68400676	    -24.57322969	      4.61357029	      0.31600251
      3.38500000	     14.99227349	      1.35510751	      3.23864462	      0.19826218	      0.96849617	      0.04464089	    -20.81648248	      0.74020152	     -1.82341835	      3.97614407	     13.95894791	      4.86821084	     28.34432758	     -1.92889497	     -9.77537093	    -14.55161059	    -46.98606462	     10.18846176	      5.47013453	     34.57467241	    -24.54021898	      4.61484998	      0.57528158
      3.39000000	     14.89078894	      1.40096617	      3.17735507	      0.20214075	      0.96828797	      0.04465359	    -20.92658318	      0.67325482	     -1.98430392	      3.87942632	     14.47152960	      5.44618619	     26.61772906	     -1.48058791	     -9.52265538	    -14.68958874	    -46.03718067	     10.59168943	      5.61990373	     33.18412176	    -24.53104017	      4.55915661	      0.73449786
      3.39500000	     14.79258761	      1.40088663	      3.09694416	      0.20598279	      0.96805684	      0.04477972	    -21.05567929	      0.65423236	     -1.94850992	      3.85179597	     14.68515447	      5.50464485	     26.57649335	     -1.05290761	     -9.34054887	    -14.87851868	    -45.02998485	     10.95108444	      5.99111653	     33.18630284	    -24.53331131	      4.53396575	      0.93771403
      3.40000000	     14.67244595	      1.41996629	      3.02516802	      0.20982748	      0.96778950	      0.04485416	    -21.15750372	      0.61251220	     -1.91710800	      3.81242793	     14.93033001	      5.57942352	     26.56076085	     -0.62155797	     -9.11157033	    -15.04449911	    -43.94535297	     11.26060795	      6.20373202	     33.18435172	    -24.50935933	      4.48957027	      1.10904978
      3.40500000	     14.65909469	      1.45293078	      2.92776172	      0.21371889	      0.96768783	      0.04492528	    -21.34615739	      0.55407841	     -2.02246465	      3.70232130	     15.27161033	      5.98035728	     26.33304241	     -0.36636537	     -8.86220873	    -15.24527118	    -42.73578591	     11.54217209	      6.54783122	     33.06645613	    -24.60245773	      4.42973483	      1.34198618
      3.41000000	     14.56213055	      1.46547740	      2.81361073	      0.21750567	      0.96746822	      0.04501891	    -21.42268237	      0.50082898	     -1.95182836	      3.57315129	     15.56645064	      6.08543353	     26.23056961	     -0.02186977	     -8.62167565	    -15.45180683	    -41.48563666	     11.73693326	      6.85965643	     33.02683596	    -24.61740288	      4.37805972	      1.56357063
      3.41500000	     14.52207537	      1.49505741	      2.69698378	      0.22139289	      0.96732250	      0.04510677	    -21.56881997	      0.43709949	     -1.97476634	      3.44515513	     15.86136042	      6.29088899	     26.04944712	      0.20982728	     -8.36111502	    -15.68998198	    -40.13201679	     11.96146306	      7.23476497	     32.96652248	    -24.68310356	      4.30757453	      1.79034253
      3.42000000	     14.50767467	      1.56887295	      2.62580801	      0.22529588	      0.96720647	      0.04507449	    -21.75432379	      0.33849429	     -2.08582860	      3.31873355	     16.24366443	      6.66953290	     25.40369495	      0.38813736	     -8.02651885	    -15.83934548	    -38.68463493	     12.17846416	      7.61187975	     32.77489543	    -24.77371029	      4.20973633	      1.93091175
      3.42500000	     14.41025064	      1.56055511	      2.47329193	      0.22909608	      0.96697189	      0.04520091	    -21.79347669	      0.29173546	     -1.96536932	      3.12457560	     16.54267116	      6.73215767	     25.23485949	      0.64454710	     -7.79704987	    -16.12554656	    -37.22146057	     12.32250304	      8.06832300	     32.75399801	    -24.78956680	      4.15845858	      2.18573525
      3.43000000	     14.37367269	      1.59651172	      2.34056811	      0.23296529	      0.96681282	      0.04526551	    -21.92038978	      0.20841371	     -1.92951372	      2.95650748	     16.85708976	      6.89226726	     25.03336748	      0.78752295	     -7.50688994	    -16.38539934	    -35.64655985	     12.46298825	      8.59087433	     32.74051502	    -24.86402216	      4.06958598	      2.38741133
      3.43500000	     14.33885486	      1.67203011	      2.22783344	      0.23687121	      0.96665984	      0.04520419	    -22.01438880	      0.08370775	     -2.08914029	      2.68329640	     17.44704026	      7.51614786	     23.04558675	      0.89249279	     -7.14388016	    -16.60425412	    -33.97350303	     12.56138370	      8.99330976	     32.59151831	    -24.93475590	      3.95305750	      2.52434740
      3.44000000	     14.28793188	      1.67755048	      2.08388983	      0.24075811	      0.96644328	      0.04529766	    -22.12593156	      0.02807519	     -1.94984026	      2.52441474	     17.69878033	      7.47583627	     22.95309573	      1.00380484	     -6.89133300	    -16.91898086	    -32.29367417	     12.67171619	      9.73603080	     32.63668585	    -24.99041080	      3.88261774	      2.73328480
      3.44500000	     14.27401902	      1.72096269	      1.93010415	      0.24469230	      0.96627860	      0.04533972	    -22.26229883	     -0.07280443	     -1.91159453	      2.32127189	     17.99920388	      7.61744478	     22.80118315	      1.02337967	     -6.57809069	    -17.25513581	    -30.50350111	     12.73750478	     10.41797904	     32.69433757	    -25.08402822	      3.77279065	      2.89506219
